<?xml version="1.0" standalone="no"?>
<!DOCTYPE svg PUBLIC "-//W3C//DTD SVG 20010904//EN"
 "http://www.w3.org/TR/2001/REC-SVG-20010904/DTD/svg10.dtd">
<svg version="1.0" xmlns="http://www.w3.org/2000/svg"
 width="239.000000pt" height="239.000000pt" viewBox="0 0 239.000000 239.000000"
 preserveAspectRatio="xMidYMid meet">
<metadata>
Created by potrace 1.11, written by Peter Selinger 2001-2013
</metadata>
<g transform="translate(0.000000,239.000000) scale(0.100000,-0.100000)"
fill="#000000" stroke="none">
<path d="M0 1368 l0 -1021 23 21 c13 12 26 22 30 22 6 0 337 -240 370 -268 16
-15 16 -17 -5 -39 -26 -28 -42 -29 -77 -3 l-28 19 -28 -29 c-28 -29 -28 -30
-10 -50 18 -20 28 -20 1067 -20 l1048 0 0 1032 0 1032 -35 -34 -35 -34 -165
164 -165 164 32 33 32 33 -1027 0 -1027 0 0 -1022z m2026 870 c106 -81 128
-140 78 -213 l-25 -38 58 -59 57 -58 -27 -27 -27 -28 -160 160 c-88 88 -160
165 -160 171 0 6 24 34 54 63 63 59 102 66 152 29z m-478 -442 c15 -8 38 -26
51 -40 l25 -27 -26 -26 -26 -26 -33 27 c-34 29 -47 29 -63 3 -9 -14 7 -34 94
-122 73 -74 111 -105 125 -103 32 5 30 37 -5 73 l-31 32 25 29 24 29 32 -30
c41 -39 60 -76 60 -118 0 -28 -8 -42 -40 -71 -72 -64 -101 -52 -257 107 -108
109 -113 116 -113 157 0 36 6 48 39 81 42 42 73 49 119 25z m-156 -195 l33
-30 -27 -27 c-26 -26 -28 -27 -46 -11 -23 21 -36 21 -52 1 -11 -13 -9 -19 12
-40 21 -22 35 -26 99 -28 41 -2 84 -4 96 -5 32 -2 100 -66 113 -105 7 -22 7
-42 1 -58 -14 -37 -77 -88 -110 -88 -27 0 -111 52 -111 68 0 5 11 19 24 31 23
22 26 22 48 7 41 -29 76 -16 63 23 -9 28 -49 41 -132 41 -87 0 -134 20 -171
74 -34 50 -29 91 17 137 50 50 95 53 143 10z m-215 -133 c31 -29 29 -36 -15
-81 l-38 -38 39 -41 39 -40 33 32 c32 31 33 32 59 15 33 -22 33 -32 -5 -71
l-31 -32 41 -41 c22 -22 42 -41 45 -41 3 0 24 18 48 40 l43 39 22 -21 c13 -12
23 -26 23 -32 0 -16 -123 -136 -140 -136 -16 0 -330 308 -330 325 0 9 130 145
139 145 3 0 15 -10 28 -22z m-133 -343 c156 -156 166 -169 166 -213 0 -27 -9
-43 -39 -73 -41 -41 -80 -50 -124 -28 -29 15 -287 271 -287 285 0 6 11 21 25
34 l26 24 138 -138 c139 -139 161 -153 178 -110 4 11 -33 55 -131 153 l-137
137 21 27 c12 15 25 27 30 27 4 0 65 -56 134 -125z m-260 -114 c45 -28 225
-216 237 -248 14 -37 3 -72 -34 -110 -36 -38 -84 -51 -120 -31 -27 14 -118 99
-204 191 -47 49 -53 61 -53 98 0 35 6 47 39 80 45 45 84 51 135 20z m-143
-242 c46 -85 85 -144 128 -190 33 -36 61 -70 61 -75 0 -6 -11 -21 -25 -34
l-24 -23 -71 67 c-39 36 -75 66 -80 66 -10 0 -230 118 -244 131 -11 10 31 59
50 59 7 0 44 -19 84 -41 39 -23 73 -39 75 -37 3 2 -16 39 -41 82 l-46 77 23
25 c12 13 28 23 33 21 6 -2 41 -59 77 -128z m-184 -301 c90 -90 163 -167 163
-172 0 -13 -41 -56 -53 -56 -4 0 -63 32 -130 71 l-122 71 99 -102 98 -101 -23
-25 c-12 -13 -27 -24 -32 -24 -14 0 -327 317 -327 331 0 14 49 69 61 69 5 0
36 -16 71 -36 35 -20 79 -46 98 -57 27 -15 16 -1 -44 61 l-80 81 24 26 c13 14
26 25 29 25 3 0 79 -73 168 -162z"/>
<path d="M1930 2165 c-10 -13 -4 -24 39 -67 l51 -53 22 23 22 22 -44 45 c-46
47 -69 55 -90 30z"/>
<path d="M702 938 c-7 -7 -12 -17 -12 -23 0 -6 49 -59 108 -118 97 -97 109
-106 126 -94 12 9 16 20 12 33 -6 21 -200 214 -214 214 -4 0 -13 -5 -20 -12z"/>
<path d="M2124 2359 l-28 -29 42 -42 42 -42 35 34 35 34 25 -24 25 -24 -30
-31 c-16 -17 -30 -35 -30 -41 0 -5 19 -29 43 -52 l43 -42 32 33 32 33 0 111 0
112 -119 0 c-118 -1 -119 -1 -147 -30z"/>
<path d="M0 209 c0 -30 5 -60 12 -67 9 -9 9 -15 0 -24 -7 -7 -12 -36 -12 -65
0 -53 0 -53 31 -53 17 0 42 9 57 20 l25 20 23 -21 c12 -11 30 -19 39 -17 13 2
-2 28 -64 113 -123 170 -110 159 -111 94z"/>
<path d="M150 191 c56 -80 63 -85 84 -62 16 17 13 21 -55 70 l-71 52 42 -60z"/>
</g>
</svg>
